HIERARCHY
ROOT root
{
	OFFSET 0.000000 0.000000 0.000000
	CHANNELS 6 Xposition Yposition Zposition Zrotation Yrotation Xrotation
	JOINT lhip
	{
		OFFSET 0.058581 -0.082280 -0.017664
		CHANNELS 3 Zrotation Yrotation Xrotation
		JOINT lknee
		{
			OFFSET 0.043451 -0.386469 0.008037
			CHANNELS 3 Zrotation Yrotation Xrotation
			JOINT lankle
			{
				OFFSET -0.014790 -0.426874 -0.037428
				CHANNELS 3 Zrotation Yrotation Xrotation
				JOINT ltoe
				{
					OFFSET 0.041054 -0.060286 0.122042
					CHANNELS 3 Zrotation Yrotation Xrotation
					End Site
					{
						OFFSET 0.000000 0.000000 0.000000
					}
				}
			}
		}
	}
	JOINT rhip
	{
		OFFSET -0.060310 -0.090513 -0.013543
		CHANNELS 3 Zrotation Yrotation Xrotation
		JOINT rknee
		{
			OFFSET -0.043257 -0.383688 -0.004843
			CHANNELS 3 Zrotation Yrotation Xrotation
			JOINT rankle
			{
				OFFSET 0.019056 -0.420046 -0.034562
				CHANNELS 3 Zrotation Yrotation Xrotation
				JOINT rtoe
				{
					OFFSET -0.034840 -0.062106 0.130323
					CHANNELS 3 Zrotation Yrotation Xrotation
					End Site
					{
						OFFSET 0.000000 0.000000 0.000000
					}
				}
			}
		}
	}
	JOINT lowerback
	{
		OFFSET 0.004439 0.124404 -0.038385
		CHANNELS 3 Zrotation Yrotation Xrotation
		JOINT upperback
		{
			OFFSET 0.004488 0.137956 0.026820
			CHANNELS 3 Zrotation Yrotation Xrotation
			JOINT chest
			{
				OFFSET -0.002265 0.056032 0.002855
				CHANNELS 3 Zrotation Yrotation Xrotation
				JOINT lowerneck
				{
					OFFSET -0.013390 0.211636 -0.033468
					CHANNELS 3 Zrotation Yrotation Xrotation
					JOINT upperneck
					{
						OFFSET 0.010113 0.088937 0.050410
						CHANNELS 3 Zrotation Yrotation Xrotation
						End Site
						{
							OFFSET 0.000000 0.000000 0.000000
						}
					}
				}
				JOINT lclavicle
				{
					OFFSET 0.071702 0.114000 -0.018898
					CHANNELS 3 Zrotation Yrotation Xrotation
					JOINT lshoulder
					{
						OFFSET 0.122921 0.045205 -0.019046
						CHANNELS 3 Zrotation Yrotation Xrotation
						JOINT lelbow
						{
							OFFSET 0.255332 -0.015649 -0.022946
							CHANNELS 3 Zrotation Yrotation Xrotation
							JOINT lwrist
							{
								OFFSET 0.265709 0.012698 -0.007375
								CHANNELS 3 Zrotation Yrotation Xrotation
								End Site
								{
									OFFSET 0.000000 0.000000 0.000000
								}
							}
						}
					}
				}
				JOINT rclavicle
				{
					OFFSET -0.082954 0.112472 -0.023707
					CHANNELS 3 Zrotation Yrotation Xrotation
					JOINT rshoulder
					{
						OFFSET -0.113228 0.046853 -0.008472
						CHANNELS 3 Zrotation Yrotation Xrotation
						JOINT relbow
						{
							OFFSET -0.260127 -0.014369 -0.031269
							CHANNELS 3 Zrotation Yrotation Xrotation
							JOINT rwrist
							{
								OFFSET -0.269108 0.006794 -0.006027
								CHANNELS 3 Zrotation Yrotation Xrotation
								End Site
								{
									OFFSET 0.000000 0.000000 0.000000
								}
							}
						}
					}
				}
			}
		}
	}
}
MOTION
Frames: 5
Frame Time: 0.033333
0.199892 -0.161640 0.999472 150.417036 -1.940287 85.257937 6.882184 1.153404 -0.847961 -4.947772 -1.219138 15.567842 1.328692 8.585524 -4.137289 0.000000 -0.000000 0.000000 -1.285792 -1.310026 7.462501 0.817048 -2.372723 7.900917 -9.218880 -7.879305 -14.974178 0.000000 -0.000000 0.000000 1.669856 2.111226 9.404290 1.655805 -3.119532 7.710140 0.375556 0.081834 -4.207102 -0.084323 3.495699 5.268608 3.625095 1.567847 -0.215752 -26.715872 -6.849883 0.370872 -61.263609 -4.482195 11.875841 10.234695 -19.581422 -13.316044 -0.753678 -8.598474 -5.161889 24.416811 8.176560 3.981503 55.144859 2.325496 9.573313 -17.325093 22.799940 -11.767998 9.119623 12.664355 -0.890113 
0.199199 -0.164671 1.000087 149.906061 -1.921674 86.552014 7.002037 1.320366 -1.742528 -5.028386 -0.555981 14.629103 1.636307 8.451681 -3.930490 0.000000 -0.000000 0.000000 -2.054435 -3.354066 5.345324 1.423108 -0.774163 8.710639 -2.657236 -5.643496 -11.929543 0.000000 -0.000000 0.000000 1.563258 2.990839 8.536239 1.759340 -3.412748 7.418633 0.213967 0.220129 -4.807808 -0.744530 1.569952 0.920780 2.868601 -1.104414 5.027941 -26.851234 -6.686700 1.357207 -60.788713 -4.970346 11.686987 10.019354 -19.856412 -12.535771 0.851380 -8.380031 -5.899319 25.133759 7.489990 4.569805 54.516081 2.811345 9.502076 -17.242954 24.597839 -11.158521 8.085228 12.738378 -0.454259 
0.199708 -0.166442 0.999660 150.100831 -1.858345 86.869102 7.181703 1.586886 -1.937407 -5.078550 -1.059562 14.188835 1.626125 8.289222 -3.921881 0.000000 -0.000000 0.000000 -1.855308 -3.617141 5.279929 1.261062 -0.806477 8.190942 -2.071115 -5.563167 -11.912109 0.000000 -0.000000 0.000000 1.302722 3.037224 8.449166 1.797589 -3.503767 7.123352 0.403258 0.173039 -4.951467 -0.991553 1.584943 0.407829 2.505383 -0.986704 5.359690 -26.661013 -6.681173 1.293269 -60.736464 -4.784458 11.603021 10.122257 -20.203632 -12.457667 1.286908 -8.176382 -6.210198 25.006233 7.563727 4.655566 54.713362 2.885075 9.661968 -17.432716 25.821299 -10.783419 7.742545 12.812344 -0.412835 
0.200285 -0.169832 0.998785 150.446561 -1.723665 86.917249 7.380624 1.424271 -2.146420 -4.932349 -1.372669 14.007302 1.608915 8.252022 -3.943766 0.000000 -0.000000 0.000000 -1.510550 -4.175889 5.718926 1.137161 -1.121828 7.155795 -2.218332 -5.593731 -11.750036 0.000000 -0.000000 0.000000 1.280654 3.229536 8.742674 1.693092 -3.493998 6.780157 0.543980 0.089480 -5.064539 -1.134702 1.259469 -0.228035 2.029648 -0.684858 5.710736 -26.916378 -6.858949 1.361841 -60.078481 -4.835173 11.492453 10.391322 -21.105936 -12.422476 2.339895 -7.916058 -6.803252 24.933625 7.981830 4.931682 54.940616 3.173938 9.880121 -17.553512 26.536577 -10.678467 6.638201 12.772610 -1.104974 
0.200284 -0.171506 0.998428 150.552593 -1.703759 86.952732 7.380923 1.288737 -2.274923 -4.831034 -1.378831 13.907277 1.562814 8.373313 -4.018397 0.000000 -0.000000 0.000000 -1.392669 -4.238117 5.760686 1.142716 -1.245990 6.861280 -2.202049 -5.705083 -11.739800 0.000000 -0.000000 0.000000 1.281642 3.285245 8.812897 1.600844 -3.435686 6.702710 0.528878 0.124047 -5.048157 -1.106195 1.220105 -0.501079 2.032928 -0.813687 5.631967 -26.877054 -6.926442 1.349490 -59.980963 -4.921576 11.479927 10.580890 -21.468885 -12.498550 2.514040 -7.906161 -6.938009 24.932760 8.159618 4.986198 55.050318 3.299656 9.920246 -17.533121 26.537267 -10.703823 6.367953 12.744274 -1.335779 
